<svg width="20" height="20" viewBox="0 0 20 20" fill="none" xmlns="http://www.w3.org/2000/svg">
  <path d="M8 8.5C5.64318 10.833 3.16648 11.4999 1.99982 11.4999C1.02021 11.6176 4 13.9999 5.49982 14.9999C9.49982 18.1999 11.1247 17.4999 11.4997 16.9999C13 14.4999 13.6667 12.6667 14 11.5L8 8.5Z" stroke="#0066ffff" stroke-width="1.5"/>
  <path d="M11 6.5C9.8 6.5 8.5 7.83333 8 8.5L14 11.5C14.8 9.5 14.6289 8.62894 14 8C12.8 6.8 11.5 6.5 11 6.5Z" stroke="#0066ffff" stroke-width="1.5"/>
  <path d="M5 14.5C5.16667 14.5 5.7 14.2 6.5 13" stroke="#0066ffff" stroke-width="1.5" stroke-linecap="round"/>
  <path d="M8 16.5C8.16667 16.5 9.5 15 10 14" stroke="#0066ffff" stroke-width="1.5" stroke-linecap="round"/>
  <circle cx="3.5" cy="6.5" r="1" fill="#0066ffff"/>
  <circle cx="1.25" cy="8.75" r="0.75" fill="#0066ffff"/>
  <path d="M14 2.00007L11.5 6.50007L14 8.00012L16.5 3.50012C17.3 1.90012 16.5 1.16675 16 1.00007C15.2 0.600071 14.3333 1.50007 14 2.00007Z" stroke="#0066ffff" stroke-width="1.5" stroke-linecap="round"/>
</svg>